<svg width="299" height="34" viewBox="0 0 299 34" fill="none" xmlns="http://www.w3.org/2000/svg">
<path d="M89.352 14.1739C90.2321 14.8642 90.7321 15.9645 90.7321 17.151C90.7321 19.1789 89.2119 20.8185 87.3317 20.8185H80.0907C79.7907 20.8185 79.5706 20.5596 79.5706 20.2576V8.69416C79.5706 8.39213 79.7907 8.13325 80.0907 8.13325H86.7316C87.5317 8.13325 88.3118 8.43528 88.9319 8.99619C90.3721 10.3122 90.5721 12.6206 89.352 14.1739ZM81.911 10.1612V13.4619H86.2715C87.1117 13.4619 87.7917 12.7284 87.7917 11.8223C87.7917 10.8947 87.1117 10.1612 86.2715 10.1612H81.911ZM86.8516 18.7906C87.6917 18.7906 88.3918 18.0571 88.3918 17.151C88.3918 16.2233 87.6917 15.4898 86.8516 15.4898H81.911V18.7906H86.8516ZM106.217 19.9987C106.257 20.085 106.277 20.1713 106.277 20.2576C106.277 20.5596 106.037 20.8185 105.757 20.8185H104.297C104.097 20.8185 103.917 20.7107 103.817 20.5165L103.017 18.7906H95.996L95.1959 20.5165C95.1159 20.7107 94.9159 20.8185 94.7159 20.8185H93.2757C93.1957 20.8185 93.1157 20.797 93.0357 20.7538C92.7756 20.6244 92.6756 20.2792 92.7956 19.9987L98.1963 8.45685C98.2764 8.26269 98.4564 8.13325 98.6564 8.13325H100.357C100.557 8.13325 100.737 8.26269 100.837 8.45685L106.217 19.9987ZM96.9362 16.7627H102.077L99.5165 11.2614L96.9362 16.7627ZM108.806 10.1612C108.506 10.1612 108.286 9.90228 108.286 9.60025V8.69416C108.286 8.39213 108.506 8.13325 108.806 8.13325H120.107C120.387 8.13325 120.627 8.39213 120.627 8.69416V9.60025C120.627 9.90228 120.387 10.1612 120.107 10.1612H115.627V20.2576C115.627 20.5596 115.387 20.8185 115.107 20.8185H113.806C113.506 20.8185 113.286 20.5596 113.286 20.2576V10.1612H108.806ZM123.163 10.1612C122.863 10.1612 122.643 9.90228 122.643 9.60025V8.69416C122.643 8.39213 122.863 8.13325 123.163 8.13325H134.464C134.744 8.13325 134.984 8.39213 134.984 8.69416V9.60025C134.984 9.90228 134.744 10.1612 134.464 10.1612H129.984V20.2576C129.984 20.5596 129.744 20.8185 129.464 20.8185H128.164C127.864 20.8185 127.643 20.5596 127.643 20.2576V10.1612H123.163ZM147.001 14.9289C147.001 15.231 146.761 15.4898 146.461 15.4898H139.34V18.7906H148.822C149.102 18.7906 149.342 19.0495 149.342 19.3731V20.2576C149.342 20.5596 149.102 20.8185 148.822 20.8185H137.52C137.22 20.8185 137 20.5596 137 20.2576V8.69416C137 8.39213 137.22 8.13325 137.52 8.13325H148.822C149.102 8.13325 149.342 8.39213 149.342 8.69416V9.60025C149.342 9.90228 149.102 10.1612 148.822 10.1612H139.34V13.4619H146.461C146.761 13.4619 147.001 13.7208 147.001 14.0228V14.9289ZM163.499 18.92C163.639 19.0279 163.7 19.1789 163.7 19.3515C163.7 19.5241 163.639 19.6967 163.499 19.8046C163.159 20.1066 162.819 20.4086 162.459 20.6891C162.259 20.8617 161.999 20.8617 161.799 20.6891L157.239 16.7627H153.698V20.2576C153.698 20.5812 153.478 20.8185 153.178 20.8185H151.878C151.558 20.8185 151.358 20.5812 151.358 20.2576V8.69416C151.358 8.37056 151.558 8.13325 151.878 8.13325H158.699C160.119 8.13325 161.839 8.21954 162.819 9.3198C163.559 10.0749 163.7 11.3477 163.7 12.448C163.7 13.5482 163.559 14.8211 162.819 15.5761C162.319 16.1586 161.599 16.4607 160.839 16.6117C161.719 17.3668 162.619 18.1434 163.499 18.92ZM153.698 14.7348H158.699C159.459 14.7348 160.359 14.6916 160.879 14.1091C161.279 13.6992 161.359 13.0305 161.359 12.448C161.359 11.8655 161.279 11.1967 160.879 10.7868C160.359 10.2043 159.459 10.1612 158.699 10.1612H153.698V14.7348ZM167.535 20.8185H166.235C165.935 20.8185 165.715 20.5596 165.715 20.2576V8.69416C165.715 8.39213 165.935 8.13325 166.235 8.13325H167.535C167.815 8.13325 168.055 8.39213 168.055 8.69416V20.2576C168.055 20.5596 167.815 20.8185 167.535 20.8185ZM180.072 14.9289C180.072 15.231 179.832 15.4898 179.532 15.4898H172.411V18.7906H181.892C182.172 18.7906 182.412 19.0495 182.412 19.3731V20.2576C182.412 20.5596 182.172 20.8185 181.892 20.8185H170.591C170.291 20.8185 170.071 20.5596 170.071 20.2576V8.69416C170.071 8.39213 170.291 8.13325 170.591 8.13325H181.892C182.172 8.13325 182.412 8.39213 182.412 8.69416V9.60025C182.412 9.90228 182.172 10.1612 181.892 10.1612H172.411V13.4619H179.532C179.832 13.4619 180.072 13.7208 180.072 14.0228V14.9289ZM186.389 14.8426C185.169 14.368 184.429 13.2246 184.429 11.8223C184.429 10.42 185.169 9.25507 186.389 8.78046C187.909 8.19797 189.569 8.13325 191.19 8.13325C192.79 8.13325 194.47 8.19797 195.99 8.78046C196.97 9.16878 197.65 10.0102 197.87 11.1104C197.91 11.283 197.87 11.4556 197.77 11.6066C197.67 11.736 197.53 11.8223 197.37 11.8223H196.03C195.81 11.8223 195.61 11.6713 195.53 11.4124C195.41 11.0241 195.13 10.7437 194.75 10.6142C193.59 10.2906 192.39 10.1612 191.19 10.1612C189.989 10.1612 188.769 10.2906 187.609 10.6142C187.089 10.7652 186.769 11.2398 186.769 11.8223C186.769 12.3832 187.089 12.8579 187.609 13.0089C188.769 13.3325 189.989 13.4619 191.19 13.4619C192.79 13.4619 194.47 13.5266 195.99 14.1091C197.21 14.5838 197.95 15.7487 197.95 17.151C197.95 18.5533 197.21 19.6967 195.99 20.1713C194.47 20.7754 192.79 20.8185 191.19 20.8185C189.569 20.8185 187.909 20.7754 186.389 20.1713C185.409 19.783 184.709 18.9416 184.489 17.8414C184.449 17.6688 184.489 17.4962 184.589 17.3668C184.689 17.2157 184.849 17.151 185.009 17.151H186.329C186.569 17.151 186.749 17.302 186.829 17.5393C186.949 17.9277 187.249 18.2297 187.609 18.3376C188.769 18.6612 189.989 18.7906 191.19 18.7906C192.39 18.7906 193.59 18.6612 194.75 18.3376C195.27 18.1865 195.59 17.7119 195.59 17.151C195.59 16.5685 195.27 16.0939 194.75 15.9645C193.59 15.6193 192.39 15.4898 191.19 15.4898C189.569 15.4898 187.909 15.4467 186.389 14.8426Z" fill="white"/>
<path d="M166.199 29.3442C165.73 29.162 165.446 28.7229 165.446 28.1844C165.446 27.646 165.73 27.1986 166.199 27.0164C166.782 26.7927 167.42 26.7678 168.042 26.7678C168.657 26.7678 169.302 26.7927 169.886 27.0164C170.262 27.1655 170.524 27.4886 170.608 27.9111C170.623 27.9773 170.608 28.0436 170.569 28.1016C170.531 28.1513 170.477 28.1844 170.416 28.1844H169.901C169.816 28.1844 169.74 28.1265 169.709 28.027C169.663 27.8779 169.555 27.7702 169.41 27.7205C168.964 27.5963 168.503 27.5466 168.042 27.5466C167.582 27.5466 167.113 27.5963 166.667 27.7205C166.468 27.7785 166.345 27.9608 166.345 28.1844C166.345 28.3998 166.468 28.5821 166.667 28.6401C167.113 28.7643 167.582 28.8141 168.042 28.8141C168.657 28.8141 169.302 28.8389 169.886 29.0626C170.354 29.2448 170.639 29.6922 170.639 30.2307C170.639 30.7691 170.354 31.2082 169.886 31.3905C169.302 31.6224 168.657 31.639 168.042 31.639C167.42 31.639 166.782 31.6224 166.199 31.3905C165.822 31.2413 165.553 30.9183 165.469 30.4958C165.454 30.4295 165.469 30.3632 165.508 30.3135C165.546 30.2555 165.608 30.2307 165.669 30.2307H166.176C166.268 30.2307 166.337 30.2887 166.368 30.3798C166.414 30.5289 166.529 30.6449 166.667 30.6863C167.113 30.8106 167.582 30.8603 168.042 30.8603C168.503 30.8603 168.964 30.8106 169.41 30.6863C169.609 30.6283 169.732 30.4461 169.732 30.2307C169.732 30.007 169.609 29.8247 169.41 29.775C168.964 29.6425 168.503 29.5928 168.042 29.5928C167.42 29.5928 166.782 29.5762 166.199 29.3442ZM175.25 29.3774C175.25 29.4934 175.158 29.5928 175.043 29.5928H172.308V30.8603H175.949C176.056 30.8603 176.148 30.9597 176.148 31.0839V31.4236C176.148 31.5396 176.056 31.639 175.949 31.639H171.609C171.494 31.639 171.409 31.5396 171.409 31.4236V26.9832C171.409 26.8672 171.494 26.7678 171.609 26.7678H175.949C176.056 26.7678 176.148 26.8672 176.148 26.9832V27.3312C176.148 27.4471 176.056 27.5466 175.949 27.5466H172.308V28.8141H175.043C175.158 28.8141 175.25 28.9135 175.25 29.0294V29.3774ZM181.585 30.91C181.639 30.9514 181.662 31.0094 181.662 31.0757C181.662 31.1419 181.639 31.2082 181.585 31.2496C181.455 31.3656 181.324 31.4816 181.186 31.5893C181.109 31.6556 181.009 31.6556 180.932 31.5893L179.181 30.0815H177.821V31.4236C177.821 31.5479 177.737 31.639 177.621 31.639H177.122C177 31.639 176.923 31.5479 176.923 31.4236V26.9832C176.923 26.859 177 26.7678 177.122 26.7678H179.742C180.287 26.7678 180.947 26.801 181.324 27.2235C181.608 27.5134 181.662 28.0022 181.662 28.4247C181.662 28.8472 181.608 29.336 181.324 29.6259C181.132 29.8496 180.855 29.9656 180.563 30.0236C180.902 30.3135 181.247 30.6117 181.585 30.91ZM177.821 29.3028H179.742C180.034 29.3028 180.379 29.2863 180.579 29.0626C180.732 28.9052 180.763 28.6484 180.763 28.4247C180.763 28.201 180.732 27.9442 180.579 27.7868C180.379 27.5631 180.034 27.5466 179.742 27.5466H177.821V29.3028ZM186.683 26.8921C186.722 26.8175 186.791 26.7678 186.868 26.7678H187.428C187.459 26.7678 187.49 26.7761 187.513 26.7927C187.613 26.8424 187.659 26.9749 187.605 27.0826L185.539 31.523C185.501 31.5976 185.431 31.639 185.354 31.639H184.702C184.625 31.639 184.556 31.5976 184.525 31.523L182.452 27.0826C182.436 27.0578 182.436 27.0246 182.436 26.9832C182.436 26.8672 182.52 26.7678 182.636 26.7678H183.189C183.265 26.7678 183.342 26.8175 183.373 26.8921L185.032 30.4378L186.683 26.8921ZM189.098 31.639H188.599C188.484 31.639 188.4 31.5396 188.4 31.4236V26.9832C188.4 26.8672 188.484 26.7678 188.599 26.7678H189.098C189.206 26.7678 189.298 26.8672 189.298 26.9832V31.4236C189.298 31.5396 189.206 31.639 189.098 31.639ZM190.072 29.2034C190.072 28.5904 190.149 27.8614 190.564 27.4306C191.124 26.8093 192.092 26.7678 192.891 26.7678C193.69 26.7678 194.642 26.8093 195.203 27.414C195.249 27.4554 195.265 27.5217 195.265 27.5797C195.265 27.646 195.233 27.704 195.188 27.7371C195.057 27.8531 194.926 27.9608 194.796 28.0768C194.712 28.1513 194.596 28.143 194.52 28.0519C194.504 28.0353 194.488 28.0188 194.473 28.0022C194.097 27.5797 193.436 27.5466 192.891 27.5466C192.346 27.5466 191.685 27.5797 191.309 28.0022C191.032 28.2921 190.97 28.7809 190.97 29.2034C190.97 29.6259 191.032 30.1147 191.309 30.4046C191.685 30.8271 192.346 30.8603 192.891 30.8603C193.436 30.8603 194.097 30.8271 194.473 30.4046C194.488 30.3963 194.504 30.3798 194.52 30.3549C194.596 30.2638 194.712 30.2555 194.796 30.3301C194.926 30.4461 195.057 30.5537 195.188 30.6697C195.233 30.7111 195.265 30.7609 195.265 30.8271C195.265 30.8934 195.249 30.9514 195.203 30.9928C194.642 31.5976 193.69 31.639 192.891 31.639C192.092 31.639 191.124 31.5976 190.564 30.9762C190.149 30.5455 190.072 29.8164 190.072 29.2034ZM199.876 29.3774C199.876 29.4934 199.784 29.5928 199.668 29.5928H196.934V30.8603H200.575C200.682 30.8603 200.774 30.9597 200.774 31.0839V31.4236C200.774 31.5396 200.682 31.639 200.575 31.639H196.235C196.12 31.639 196.035 31.5396 196.035 31.4236V26.9832C196.035 26.8672 196.12 26.7678 196.235 26.7678H200.575C200.682 26.7678 200.774 26.8672 200.774 26.9832V27.3312C200.774 27.4471 200.682 27.5466 200.575 27.5466H196.934V28.8141H199.668C199.784 28.8141 199.876 28.9135 199.876 29.0294V29.3774ZM202.301 29.3442C201.833 29.162 201.549 28.7229 201.549 28.1844C201.549 27.646 201.833 27.1986 202.301 27.0164C202.885 26.7927 203.522 26.7678 204.145 26.7678C204.759 26.7678 205.404 26.7927 205.988 27.0164C206.364 27.1655 206.625 27.4886 206.71 27.9111C206.725 27.9773 206.71 28.0436 206.672 28.1016C206.633 28.1513 206.58 28.1844 206.518 28.1844H206.004C205.919 28.1844 205.842 28.1265 205.812 28.027C205.765 27.8779 205.658 27.7702 205.511 27.7205C205.067 27.5963 204.606 27.5466 204.145 27.5466C203.684 27.5466 203.215 27.5963 202.77 27.7205C202.57 27.7785 202.447 27.9608 202.447 28.1844C202.447 28.3998 202.57 28.5821 202.77 28.6401C203.215 28.7643 203.684 28.8141 204.145 28.8141C204.759 28.8141 205.404 28.8389 205.988 29.0626C206.456 29.2448 206.74 29.6922 206.74 30.2307C206.74 30.7691 206.456 31.2082 205.988 31.3905C205.404 31.6224 204.759 31.639 204.145 31.639C203.522 31.639 202.885 31.6224 202.301 31.3905C201.925 31.2413 201.656 30.9183 201.572 30.4958C201.556 30.4295 201.572 30.3632 201.61 30.3135C201.649 30.2555 201.709 30.2307 201.771 30.2307H202.278C202.37 30.2307 202.439 30.2887 202.47 30.3798C202.516 30.5289 202.631 30.6449 202.77 30.6863C203.215 30.8106 203.684 30.8603 204.145 30.8603C204.606 30.8603 205.067 30.8106 205.511 30.6863C205.712 30.6283 205.835 30.4461 205.835 30.2307C205.835 30.007 205.712 29.8247 205.511 29.775C205.067 29.6425 204.606 29.5928 204.145 29.5928C203.522 29.5928 202.885 29.5762 202.301 29.3442Z" fill="white"/>
<path d="M70.4094 3.4H0V25.4051H70.4094V3.4Z" fill="#DF0915"/>
<path d="M17.1023 9.3198C17.8424 10.0749 17.9824 11.3477 17.9824 12.448C17.9824 13.5482 17.8424 14.8211 17.1023 15.5761C16.1222 16.6764 14.4019 16.7627 12.9817 16.7627H7.98108V20.2576C7.98108 20.5812 7.76105 20.8185 7.46101 20.8185H6.16083C5.84079 20.8185 5.64076 20.5812 5.64076 20.2576V8.69416C5.64076 8.37056 5.84079 8.13325 6.16083 8.13325H12.9817C14.4019 8.13325 16.1222 8.21954 17.1023 9.3198ZM15.162 14.1091C15.5621 13.6992 15.6421 13.0305 15.6421 12.448C15.6421 11.8655 15.5621 11.1967 15.162 10.7868C14.642 10.2043 13.7418 10.1612 12.9817 10.1612H7.98108V14.7348H12.9817C13.7418 14.7348 14.642 14.6916 15.162 14.1091ZM33.3999 9.85914C34.4801 10.981 34.7001 12.8794 34.7001 14.4759C34.7001 16.0723 34.4801 17.9708 33.3999 19.0926C31.9597 20.7107 29.4394 20.8185 27.3391 20.8185C25.2588 20.8185 22.7385 20.7107 21.2783 19.0926C20.1981 17.9708 19.9981 16.0723 19.9981 14.4759C19.9981 12.8794 20.1981 10.981 21.2783 9.85914C22.7385 8.24112 25.2588 8.13325 27.3391 8.13325C29.4394 8.13325 31.9597 8.24112 33.3999 9.85914ZM31.4597 17.6041C32.1998 16.849 32.3398 15.5761 32.3398 14.4759C32.3398 13.3756 32.1998 12.1028 31.4597 11.3477C30.4795 10.2475 28.7593 10.1612 27.3391 10.1612C25.9189 10.1612 24.1987 10.2475 23.2186 11.3477C22.4985 12.1028 22.3384 13.3756 22.3384 14.4759C22.3384 15.5761 22.4985 16.849 23.2186 17.6041C24.1987 18.7043 25.9189 18.7906 27.3391 18.7906C28.7593 18.7906 30.4795 18.7043 31.4597 17.6041ZM38.5199 20.8185H37.2197C36.9197 20.8185 36.6996 20.5596 36.6996 20.2576V8.69416C36.6996 8.39213 36.9197 8.13325 37.2197 8.13325H38.5199C38.7999 8.13325 39.04 8.39213 39.04 8.69416V20.2576C39.04 20.5596 38.7999 20.8185 38.5199 20.8185ZM50.897 20.6244L43.396 11.2398V20.2576C43.396 20.5596 43.1559 20.8185 42.8759 20.8185H41.5757C41.2757 20.8185 41.0557 20.5596 41.0557 20.2576V8.69416C41.0557 8.39213 41.2757 8.13325 41.5757 8.13325H43.1559C43.316 8.13325 43.456 8.19797 43.556 8.32741L51.057 17.7119V8.69416C51.057 8.39213 51.277 8.13325 51.5771 8.13325H52.8772C53.1573 8.13325 53.3973 8.39213 53.3973 8.69416V20.2576C53.3973 20.5596 53.1573 20.8185 52.8772 20.8185H51.297C51.137 20.8185 50.997 20.7538 50.897 20.6244ZM55.9331 10.1612C55.6331 10.1612 55.413 9.90228 55.413 9.60025V8.69416C55.413 8.39213 55.6331 8.13325 55.9331 8.13325H67.2346C67.5146 8.13325 67.7547 8.39213 67.7547 8.69416V9.60025C67.7547 9.90228 67.5146 10.1612 67.2346 10.1612H62.754V20.2576C62.754 20.5596 62.514 20.8185 62.2339 20.8185H60.9338C60.6337 20.8185 60.4137 20.5596 60.4137 20.2576V10.1612H55.9331Z" fill="white"/>
<path d="M232.671 9.967V16.3096C232.671 18.467 231.551 19.7614 229.571 19.7614H222.31C218.069 19.7614 215.949 17.7335 215.949 13.6561V9.967H218.169V13.6561C218.169 15.0584 218.549 16.0508 219.309 16.6117C219.909 17.0647 220.83 17.302 222.05 17.302H227.53C228.551 17.302 229.251 17.1726 229.631 16.8921C230.191 16.5038 230.471 15.7487 230.471 14.6485V9.967H232.671ZM227.27 9.94543H225.09V7.55076H227.27V9.94543ZM223.47 9.94543H221.29V7.55076H223.47V9.94543ZM243.06 19.7614H240.439C239.359 19.7614 238.539 19.3947 237.959 18.6396C237.419 17.9492 237.159 17.0216 237.159 15.835V5.84644H239.379V14.8642C239.379 15.9213 239.599 16.6117 240.019 16.9353C240.319 17.1726 240.899 17.302 241.74 17.302H243.06V19.7614ZM250.575 15.8566C250.575 18.467 249.455 19.7614 247.235 19.7614H244.874V17.302H246.755C247.495 17.302 247.955 17.0647 248.175 16.5901C248.275 16.3312 248.335 15.8134 248.335 15.0368V9.967H250.575V15.8566ZM246.735 24.486H244.534V22.0698H246.735V24.486ZM250.515 24.486H248.315V22.0698H250.515V24.486ZM259.468 9.967V17.8414C259.468 21.7246 257.888 23.3426 254.448 23.3426V21.2716C256.308 21.2716 257.228 20.2792 257.228 18.2081V9.967H259.468ZM269.834 19.7614H267.213C266.133 19.7614 265.313 19.3947 264.733 18.6396C264.193 17.9492 263.933 17.0216 263.933 15.835V5.84644H266.153V14.8642C266.153 15.9213 266.373 16.6117 266.793 16.9353C267.093 17.1726 267.673 17.302 268.513 17.302H269.834V19.7614ZM290.751 19.7614H271.608V17.302H275.489V5.84644H277.689L277.409 13.6561C279.269 11.0888 281.19 9.92385 283.31 9.92385C286.69 9.92385 288.431 12.4048 288.491 17.302H290.751V19.7614ZM286.17 17.302C286.19 17.0647 286.19 16.849 286.19 16.6117C286.19 13.8503 285.03 12.0812 283.11 12.0812C280.87 12.0812 278.529 14.2817 277.229 17.302H286.17ZM298.263 15.8566C298.263 18.467 297.143 19.7614 294.923 19.7614H292.762V17.302H294.463C295.203 17.302 295.663 17.0647 295.883 16.5901C295.983 16.3312 296.043 15.8134 296.043 15.0368V9.967H298.263V15.8566ZM298.243 24.486H296.063V22.0698H298.243V24.486Z" fill="white"/>
</svg>
