<svg width="3737" height="394" viewBox="0 0 3737 394" fill="none" xmlns="http://www.w3.org/2000/svg">
<path d="M1116.75 164.25C1127.75 172.25 1134 185 1134 198.75C1134 222.25 1115 241.25 1091.5 241.25H1001C997.25 241.25 994.5 238.25 994.5 234.75V100.75C994.5 97.25 997.25 94.25 1001 94.25H1084C1094 94.25 1103.75 97.75 1111.5 104.25C1129.5 119.5 1132 146.25 1116.75 164.25ZM1023.75 117.75V156H1078.25C1088.75 156 1097.25 147.5 1097.25 137C1097.25 126.25 1088.75 117.75 1078.25 117.75H1023.75ZM1085.5 217.75C1096 217.75 1104.75 209.25 1104.75 198.75C1104.75 188 1096 179.5 1085.5 179.5H1023.75V217.75H1085.5ZM1327.54 231.75C1328.04 232.75 1328.29 233.75 1328.29 234.75C1328.29 238.25 1325.29 241.25 1321.79 241.25H1303.54C1301.04 241.25 1298.79 240 1297.54 237.75L1287.54 217.75H1199.79L1189.79 237.75C1188.79 240 1186.29 241.25 1183.79 241.25H1165.79C1164.79 241.25 1163.79 241 1162.79 240.5C1159.54 239 1158.29 235 1159.79 231.75L1227.29 98C1228.29 95.75 1230.54 94.25 1233.04 94.25H1254.29C1256.79 94.25 1259.04 95.75 1260.29 98L1327.54 231.75ZM1211.54 194.25H1275.79L1243.79 130.5L1211.54 194.25ZM1359.89 117.75C1356.14 117.75 1353.39 114.75 1353.39 111.25V100.75C1353.39 97.25 1356.14 94.25 1359.89 94.25H1501.14C1504.64 94.25 1507.64 97.25 1507.64 100.75V111.25C1507.64 114.75 1504.64 117.75 1501.14 117.75H1445.14V234.75C1445.14 238.25 1442.14 241.25 1438.64 241.25H1422.39C1418.64 241.25 1415.89 238.25 1415.89 234.75V117.75H1359.89ZM1539.33 117.75C1535.58 117.75 1532.83 114.75 1532.83 111.25V100.75C1532.83 97.25 1535.58 94.25 1539.33 94.25H1680.58C1684.08 94.25 1687.08 97.25 1687.08 100.75V111.25C1687.08 114.75 1684.08 117.75 1680.58 117.75H1624.58V234.75C1624.58 238.25 1621.58 241.25 1618.08 241.25H1601.83C1598.08 241.25 1595.33 238.25 1595.33 234.75V117.75H1539.33ZM1837.27 173C1837.27 176.5 1834.27 179.5 1830.52 179.5H1741.52V217.75H1860.02C1863.52 217.75 1866.52 220.75 1866.52 224.5V234.75C1866.52 238.25 1863.52 241.25 1860.02 241.25H1718.77C1715.02 241.25 1712.27 238.25 1712.27 234.75V100.75C1712.27 97.25 1715.02 94.25 1718.77 94.25H1860.02C1863.52 94.25 1866.52 97.25 1866.52 100.75V111.25C1866.52 114.75 1863.52 117.75 1860.02 117.75H1741.52V156H1830.52C1834.27 156 1837.27 159 1837.27 162.5V173ZM2043.47 219.25C2045.22 220.5 2045.97 222.25 2045.97 224.25C2045.97 226.25 2045.22 228.25 2043.47 229.5C2039.22 233 2034.97 236.5 2030.47 239.75C2027.97 241.75 2024.72 241.75 2022.22 239.75L1965.22 194.25H1920.97V234.75C1920.97 238.5 1918.22 241.25 1914.47 241.25H1898.22C1894.22 241.25 1891.72 238.5 1891.72 234.75V100.75C1891.72 97 1894.22 94.25 1898.22 94.25H1983.47C2001.22 94.25 2022.72 95.25 2034.97 108C2044.22 116.75 2045.97 131.5 2045.97 144.25C2045.97 157 2044.22 171.75 2034.97 180.5C2028.72 187.25 2019.72 190.75 2010.22 192.5C2021.22 201.25 2032.47 210.25 2043.47 219.25ZM1920.97 170.75H1983.47C1992.97 170.75 2004.22 170.25 2010.72 163.5C2015.72 158.75 2016.72 151 2016.72 144.25C2016.72 137.5 2015.72 129.75 2010.72 125C2004.22 118.25 1992.97 117.75 1983.47 117.75H1920.97V170.75ZM2093.91 241.25H2077.66C2073.91 241.25 2071.16 238.25 2071.16 234.75V100.75C2071.16 97.25 2073.91 94.25 2077.66 94.25H2093.91C2097.41 94.25 2100.41 97.25 2100.41 100.75V234.75C2100.41 238.25 2097.41 241.25 2093.91 241.25ZM2250.6 173C2250.6 176.5 2247.6 179.5 2243.85 179.5H2154.85V217.75H2273.35C2276.85 217.75 2279.85 220.75 2279.85 224.5V234.75C2279.85 238.25 2276.85 241.25 2273.35 241.25H2132.1C2128.35 241.25 2125.6 238.25 2125.6 234.75V100.75C2125.6 97.25 2128.35 94.25 2132.1 94.25H2273.35C2276.85 94.25 2279.85 97.25 2279.85 100.75V111.25C2279.85 114.75 2276.85 117.75 2273.35 117.75H2154.85V156H2243.85C2247.6 156 2250.6 159 2250.6 162.5V173ZM2329.55 172C2314.3 166.5 2305.05 153.25 2305.05 137C2305.05 120.75 2314.3 107.25 2329.55 101.75C2348.55 95 2369.3 94.25 2389.55 94.25C2409.55 94.25 2430.55 95 2449.55 101.75C2461.8 106.25 2470.3 116 2473.05 128.75C2473.55 130.75 2473.05 132.75 2471.8 134.5C2470.55 136 2468.8 137 2466.8 137H2450.05C2447.3 137 2444.8 135.25 2443.8 132.25C2442.3 127.75 2438.8 124.5 2434.05 123C2419.55 119.25 2404.55 117.75 2389.55 117.75C2374.55 117.75 2359.3 119.25 2344.8 123C2338.3 124.75 2334.3 130.25 2334.3 137C2334.3 143.5 2338.3 149 2344.8 150.75C2359.3 154.5 2374.55 156 2389.55 156C2409.55 156 2430.55 156.75 2449.55 163.5C2464.8 169 2474.05 182.5 2474.05 198.75C2474.05 215 2464.8 228.25 2449.55 233.75C2430.55 240.75 2409.55 241.25 2389.55 241.25C2369.3 241.25 2348.55 240.75 2329.55 233.75C2317.3 229.25 2308.55 219.5 2305.8 206.75C2305.3 204.75 2305.8 202.75 2307.05 201.25C2308.3 199.5 2310.3 198.75 2312.3 198.75H2328.8C2331.8 198.75 2334.05 200.5 2335.05 203.25C2336.55 207.75 2340.3 211.25 2344.8 212.5C2359.3 216.25 2374.55 217.75 2389.55 217.75C2404.55 217.75 2419.55 216.25 2434.05 212.5C2440.55 210.75 2444.55 205.25 2444.55 198.75C2444.55 192 2440.55 186.5 2434.05 185C2419.55 181 2404.55 179.5 2389.55 179.5C2369.3 179.5 2348.55 179 2329.55 172Z" fill="white"/>
<path d="M2077.21 340.048C2071.35 337.936 2067.8 332.848 2067.8 326.608C2067.8 320.368 2071.35 315.184 2077.21 313.072C2084.5 310.48 2092.47 310.192 2100.25 310.192C2107.93 310.192 2115.99 310.48 2123.29 313.072C2127.99 314.8 2131.26 318.544 2132.31 323.44C2132.5 324.208 2132.31 324.976 2131.83 325.648C2131.35 326.224 2130.68 326.608 2129.91 326.608H2123.48C2122.42 326.608 2121.46 325.936 2121.08 324.784C2120.5 323.056 2119.16 321.808 2117.34 321.232C2111.77 319.792 2106.01 319.216 2100.25 319.216C2094.49 319.216 2088.63 319.792 2083.06 321.232C2080.57 321.904 2079.03 324.016 2079.03 326.608C2079.03 329.104 2080.57 331.216 2083.06 331.888C2088.63 333.328 2094.49 333.904 2100.25 333.904C2107.93 333.904 2115.99 334.192 2123.29 336.784C2129.14 338.896 2132.7 344.08 2132.7 350.32C2132.7 356.56 2129.14 361.648 2123.29 363.76C2115.99 366.448 2107.93 366.64 2100.25 366.64C2092.47 366.64 2084.5 366.448 2077.21 363.76C2072.5 362.032 2069.14 358.288 2068.09 353.392C2067.9 352.624 2068.09 351.856 2068.57 351.28C2069.05 350.608 2069.82 350.32 2070.58 350.32H2076.92C2078.07 350.32 2078.94 350.992 2079.32 352.048C2079.9 353.776 2081.34 355.12 2083.06 355.6C2088.63 357.04 2094.49 357.616 2100.25 357.616C2106.01 357.616 2111.77 357.04 2117.34 355.6C2119.83 354.928 2121.37 352.816 2121.37 350.32C2121.37 347.728 2119.83 345.616 2117.34 345.04C2111.77 343.504 2106.01 342.928 2100.25 342.928C2092.47 342.928 2084.5 342.736 2077.21 340.048ZM2190.33 340.432C2190.33 341.776 2189.18 342.928 2187.74 342.928H2153.56V357.616H2199.07C2200.41 357.616 2201.56 358.768 2201.56 360.208V364.144C2201.56 365.488 2200.41 366.64 2199.07 366.64H2144.83C2143.39 366.64 2142.33 365.488 2142.33 364.144V312.688C2142.33 311.344 2143.39 310.192 2144.83 310.192H2199.07C2200.41 310.192 2201.56 311.344 2201.56 312.688V316.72C2201.56 318.064 2200.41 319.216 2199.07 319.216H2153.56V333.904H2187.74C2189.18 333.904 2190.33 335.056 2190.33 336.4V340.432ZM2269.51 358.192C2270.18 358.672 2270.47 359.344 2270.47 360.112C2270.47 360.88 2270.18 361.648 2269.51 362.128C2267.88 363.472 2266.25 364.816 2264.52 366.064C2263.56 366.832 2262.31 366.832 2261.35 366.064L2239.46 348.592H2222.47V364.144C2222.47 365.584 2221.41 366.64 2219.97 366.64H2213.73C2212.2 366.64 2211.24 365.584 2211.24 364.144V312.688C2211.24 311.248 2212.2 310.192 2213.73 310.192H2246.47C2253.29 310.192 2261.54 310.576 2266.25 315.472C2269.8 318.832 2270.47 324.496 2270.47 329.392C2270.47 334.288 2269.8 339.952 2266.25 343.312C2263.85 345.904 2260.39 347.248 2256.74 347.92C2260.97 351.28 2265.29 354.736 2269.51 358.192ZM2222.47 339.568H2246.47C2250.12 339.568 2254.44 339.376 2256.93 336.784C2258.85 334.96 2259.24 331.984 2259.24 329.392C2259.24 326.8 2258.85 323.824 2256.93 322C2254.44 319.408 2250.12 319.216 2246.47 319.216H2222.47V339.568ZM2333.23 311.632C2333.71 310.768 2334.58 310.192 2335.54 310.192H2342.54C2342.93 310.192 2343.31 310.288 2343.6 310.48C2344.85 311.056 2345.42 312.592 2344.75 313.84L2318.93 365.296C2318.45 366.16 2317.58 366.64 2316.62 366.64H2308.46C2307.5 366.64 2306.64 366.16 2306.26 365.296L2280.34 313.84C2280.14 313.552 2280.14 313.168 2280.14 312.688C2280.14 311.344 2281.2 310.192 2282.64 310.192H2289.55C2290.51 310.192 2291.47 310.768 2291.86 311.632L2312.59 352.72L2333.23 311.632ZM2363.41 366.64H2357.17C2355.73 366.64 2354.68 365.488 2354.68 364.144V312.688C2354.68 311.344 2355.73 310.192 2357.17 310.192H2363.41C2364.76 310.192 2365.91 311.344 2365.91 312.688V364.144C2365.91 365.488 2364.76 366.64 2363.41 366.64ZM2375.58 338.416C2375.58 331.312 2376.54 322.864 2381.73 317.872C2388.73 310.672 2400.83 310.192 2410.81 310.192C2420.8 310.192 2432.7 310.672 2439.71 317.68C2440.29 318.16 2440.48 318.928 2440.48 319.6C2440.48 320.368 2440.09 321.04 2439.52 321.424C2437.89 322.768 2436.25 324.016 2434.62 325.36C2433.57 326.224 2432.13 326.128 2431.17 325.072C2430.97 324.88 2430.78 324.688 2430.59 324.496C2425.89 319.6 2417.63 319.216 2410.81 319.216C2404 319.216 2395.74 319.6 2391.04 324.496C2387.58 327.856 2386.81 333.52 2386.81 338.416C2386.81 343.312 2387.58 348.976 2391.04 352.336C2395.74 357.232 2404 357.616 2410.81 357.616C2417.63 357.616 2425.89 357.232 2430.59 352.336C2430.78 352.24 2430.97 352.048 2431.17 351.76C2432.13 350.704 2433.57 350.608 2434.62 351.472C2436.25 352.816 2437.89 354.064 2439.52 355.408C2440.09 355.888 2440.48 356.464 2440.48 357.232C2440.48 358 2440.29 358.672 2439.71 359.152C2432.7 366.16 2420.8 366.64 2410.81 366.64C2400.83 366.64 2388.73 366.16 2381.73 358.96C2376.54 353.968 2375.58 345.52 2375.58 338.416ZM2498.11 340.432C2498.11 341.776 2496.96 342.928 2495.52 342.928H2461.34V357.616H2506.85C2508.19 357.616 2509.34 358.768 2509.34 360.208V364.144C2509.34 365.488 2508.19 366.64 2506.85 366.64H2452.61C2451.17 366.64 2450.11 365.488 2450.11 364.144V312.688C2450.11 311.344 2451.17 310.192 2452.61 310.192H2506.85C2508.19 310.192 2509.34 311.344 2509.34 312.688V316.72C2509.34 318.064 2508.19 319.216 2506.85 319.216H2461.34V333.904H2495.52C2496.96 333.904 2498.11 335.056 2498.11 336.4V340.432ZM2528.43 340.048C2522.57 337.936 2519.02 332.848 2519.02 326.608C2519.02 320.368 2522.57 315.184 2528.43 313.072C2535.72 310.48 2543.69 310.192 2551.47 310.192C2559.15 310.192 2567.21 310.48 2574.51 313.072C2579.21 314.8 2582.47 318.544 2583.53 323.44C2583.72 324.208 2583.53 324.976 2583.05 325.648C2582.57 326.224 2581.9 326.608 2581.13 326.608H2574.7C2573.64 326.608 2572.68 325.936 2572.3 324.784C2571.72 323.056 2570.38 321.808 2568.55 321.232C2562.99 319.792 2557.23 319.216 2551.47 319.216C2545.71 319.216 2539.85 319.792 2534.28 321.232C2531.79 321.904 2530.25 324.016 2530.25 326.608C2530.25 329.104 2531.79 331.216 2534.28 331.888C2539.85 333.328 2545.71 333.904 2551.47 333.904C2559.15 333.904 2567.21 334.192 2574.51 336.784C2580.36 338.896 2583.91 344.08 2583.91 350.32C2583.91 356.56 2580.36 361.648 2574.51 363.76C2567.21 366.448 2559.15 366.64 2551.47 366.64C2543.69 366.64 2535.72 366.448 2528.43 363.76C2523.72 362.032 2520.36 358.288 2519.31 353.392C2519.11 352.624 2519.31 351.856 2519.79 351.28C2520.27 350.608 2521.03 350.32 2521.8 350.32H2528.14C2529.29 350.32 2530.15 350.992 2530.54 352.048C2531.11 353.776 2532.55 355.12 2534.28 355.6C2539.85 357.04 2545.71 357.616 2551.47 357.616C2557.23 357.616 2562.99 357.04 2568.55 355.6C2571.05 354.928 2572.59 352.816 2572.59 350.32C2572.59 347.728 2571.05 345.616 2568.55 345.04C2562.99 343.504 2557.23 342.928 2551.47 342.928C2543.69 342.928 2535.72 342.736 2528.43 340.048Z" fill="white"/>
<rect y="47" width="880" height="255" fill="#DF0915"/>
<path d="M213.75 108C223 116.75 224.75 131.5 224.75 144.25C224.75 157 223 171.75 213.75 180.5C201.5 193.25 180 194.25 162.25 194.25H99.75V234.75C99.75 238.5 97 241.25 93.25 241.25H77C73 241.25 70.5 238.5 70.5 234.75V100.75C70.5 97 73 94.25 77 94.25H162.25C180 94.25 201.5 95.25 213.75 108ZM189.5 163.5C194.5 158.75 195.5 151 195.5 144.25C195.5 137.5 194.5 129.75 189.5 125C183 118.25 171.75 117.75 162.25 117.75H99.75V170.75H162.25C171.75 170.75 183 170.25 189.5 163.5ZM417.443 114.25C430.943 127.25 433.693 149.25 433.693 167.75C433.693 186.25 430.943 208.25 417.443 221.25C399.443 240 367.943 241.25 341.693 241.25C315.693 241.25 284.193 240 265.943 221.25C252.443 208.25 249.943 186.25 249.943 167.75C249.943 149.25 252.443 127.25 265.943 114.25C284.193 95.5 315.693 94.25 341.693 94.25C367.943 94.25 399.443 95.5 417.443 114.25ZM393.193 204C402.443 195.25 404.193 180.5 404.193 167.75C404.193 155 402.443 140.25 393.193 131.5C380.943 118.75 359.443 117.75 341.693 117.75C323.943 117.75 302.443 118.75 290.193 131.5C281.193 140.25 279.193 155 279.193 167.75C279.193 180.5 281.193 195.25 290.193 204C302.443 216.75 323.943 217.75 341.693 217.75C359.443 217.75 380.943 216.75 393.193 204ZM481.434 241.25H465.184C461.434 241.25 458.684 238.25 458.684 234.75V100.75C458.684 97.25 461.434 94.25 465.184 94.25H481.434C484.934 94.25 487.934 97.25 487.934 100.75V234.75C487.934 238.25 484.934 241.25 481.434 241.25ZM636.127 239L542.377 130.25V234.75C542.377 238.25 539.377 241.25 535.877 241.25H519.627C515.877 241.25 513.127 238.25 513.127 234.75V100.75C513.127 97.25 515.877 94.25 519.627 94.25H539.377C541.377 94.25 543.127 95 544.377 96.5L638.127 205.25V100.75C638.127 97.25 640.877 94.25 644.627 94.25H660.877C664.377 94.25 667.377 97.25 667.377 100.75V234.75C667.377 238.25 664.377 241.25 660.877 241.25H641.127C639.127 241.25 637.377 240.5 636.127 239ZM699.07 117.75C695.32 117.75 692.57 114.75 692.57 111.25V100.75C692.57 97.25 695.32 94.25 699.07 94.25H840.32C843.82 94.25 846.82 97.25 846.82 100.75V111.25C846.82 114.75 843.82 117.75 840.32 117.75H784.32V234.75C784.32 238.25 781.32 241.25 777.82 241.25H761.57C757.82 241.25 755.07 238.25 755.07 234.75V117.75H699.07Z" fill="white"/>
<path d="M2908 115.5V189C2908 214 2894 229 2869.25 229H2778.5C2725.5 229 2699 205.5 2699 158.25V115.5H2726.75V158.25C2726.75 174.5 2731.5 186 2741 192.5C2748.5 197.75 2760 200.5 2775.25 200.5H2843.75C2856.5 200.5 2865.25 199 2870 195.75C2877 191.25 2880.5 182.5 2880.5 169.75V115.5H2908ZM2840.5 115.25H2813.25V87.5H2840.5V115.25ZM2793 115.25H2765.75V87.5H2793V115.25ZM3037.84 229H3005.09C2991.59 229 2981.34 224.75 2974.09 216C2967.34 208 2964.09 197.25 2964.09 183.5V67.75H2991.84V172.25C2991.84 184.5 2994.59 192.5 2999.84 196.25C3003.59 199 3010.84 200.5 3021.34 200.5H3037.84V229ZM3131.77 183.75C3131.77 214 3117.77 229 3090.02 229H3060.52V200.5H3084.02C3093.27 200.5 3099.02 197.75 3101.77 192.25C3103.02 189.25 3103.77 183.25 3103.77 174.25V115.5H3131.77V183.75ZM3083.77 283.75H3056.27V255.75H3083.77V283.75ZM3131.02 283.75H3103.52V255.75H3131.02V283.75ZM3242.92 115.5V206.75C3242.92 251.75 3223.17 270.5 3180.17 270.5V246.5C3203.42 246.5 3214.92 235 3214.92 211V115.5H3242.92ZM3372.47 229H3339.72C3326.22 229 3315.97 224.75 3308.72 216C3301.97 208 3298.72 197.25 3298.72 183.5V67.75H3326.47V172.25C3326.47 184.5 3329.22 192.5 3334.47 196.25C3338.22 199 3345.47 200.5 3355.97 200.5H3372.47V229ZM3633.9 229H3394.65V200.5H3443.15V67.75H3470.65L3467.15 158.25C3490.4 128.5 3514.4 115 3540.9 115C3583.15 115 3604.9 143.75 3605.65 200.5H3633.9V229ZM3576.65 200.5C3576.9 197.75 3576.9 195.25 3576.9 192.5C3576.9 160.5 3562.4 140 3538.4 140C3510.4 140 3481.15 165.5 3464.9 200.5H3576.65ZM3727.79 183.75C3727.79 214 3713.79 229 3686.04 229H3659.04V200.5H3680.29C3689.54 200.5 3695.29 197.75 3698.04 192.25C3699.29 189.25 3700.04 183.25 3700.04 174.25V115.5H3727.79V183.75ZM3727.54 283.75H3700.29V255.75H3727.54V283.75Z" fill="white"/>
</svg>
